<svg
   xmlns="http://www.w3.org/2000/svg"
   viewBox="0 0 675 900"
   width="675"
   height="900"
>
   <rect
      x="0"
      y="0"
      width="675"
      height="900"
      fill="#fff"
   ></rect>
   <path
      d="M0 590L16 565.8C32 541.7 64 493.3 96.2 472.5C128.3 451.7 160.7 458.3 192.8 452.3C225 446.3 257 427.7 289.2 443.3C321.3 459 353.7 509 385.8 511.7C418 514.3 450 469.7 482.2 481.5C514.3 493.3 546.7 561.7 578.8 562.5C611 563.3 643 496.7 659 463.3L675 430L675 0L659 0C643 0 611 0 578.8 0C546.7 0 514.3 0 482.2 0C450 0 418 0 385.8 0C353.7 0 321.3 0 289.2 0C257 0 225 0 192.8 0C160.7 0 128.3 0 96.2 0C64 0 32 0 16 0L0 0Z"
      fill="#ffffff"
   ></path>
   <path
      d="M0 504L16 495C32 486 64 468 96.2 465.2C128.3 462.3 160.7 474.7 192.8 480.7C225 486.7 257 486.3 289.2 498.5C321.3 510.7 353.7 535.3 385.8 520.3C418 505.3 450 450.7 482.2 417.8C514.3 385 546.7 374 578.8 394.2C611 414.3 643 465.7 659 491.3L675 517L675 0L659 0C643 0 611 0 578.8 0C546.7 0 514.3 0 482.2 0C450 0 418 0 385.8 0C353.7 0 321.3 0 289.2 0C257 0 225 0 192.8 0C160.7 0 128.3 0 96.2 0C64 0 32 0 16 0L0 0Z"
      fill="#ffddea"
   ></path>
   <path
      d="M0 330L16 338.2C32 346.3 64 362.7 96.2 381.5C128.3 400.3 160.7 421.7 192.8 430.7C225 439.7 257 436.3 289.2 425.8C321.3 415.3 353.7 397.7 385.8 390.8C418 384 450 388 482.2 401.7C514.3 415.3 546.7 438.7 578.8 426.7C611 414.7 643 367.3 659 343.7L675 320L675 0L659 0C643 0 611 0 578.8 0C546.7 0 514.3 0 482.2 0C450 0 418 0 385.8 0C353.7 0 321.3 0 289.2 0C257 0 225 0 192.8 0C160.7 0 128.3 0 96.2 0C64 0 32 0 16 0L0 0Z"
      fill="#febbd5"
   ></path>
   <path
      d="M0 333L16 321.3C32 309.7 64 286.3 96.2 269.8C128.3 253.3 160.7 243.7 192.8 244.7C225 245.7 257 257.3 289.2 264.2C321.3 271 353.7 273 385.8 270.7C418 268.3 450 261.7 482.2 266.8C514.3 272 546.7 289 578.8 285.5C611 282 643 258 659 246L675 234L675 0L659 0C643 0 611 0 578.8 0C546.7 0 514.3 0 482.2 0C450 0 418 0 385.8 0C353.7 0 321.3 0 289.2 0C257 0 225 0 192.8 0C160.7 0 128.3 0 96.2 0C64 0 32 0 16 0L0 0Z"
      fill="#fa99c1"
   ></path>
   <path
      d="M0 212L16 218.3C32 224.7 64 237.3 96.2 243.2C128.3 249 160.7 248 192.8 238.2C225 228.3 257 209.7 289.2 203C321.3 196.3 353.7 201.7 385.8 202C418 202.3 450 197.7 482.2 191.8C514.3 186 546.7 179 578.8 187C611 195 643 218 659 229.5L675 241L675 0L659 0C643 0 611 0 578.8 0C546.7 0 514.3 0 482.2 0C450 0 418 0 385.8 0C353.7 0 321.3 0 289.2 0C257 0 225 0 192.8 0C160.7 0 128.3 0 96.2 0C64 0 32 0 16 0L0 0Z"
      fill="#f474ad"
   ></path>
   <path
      d="M0 167L16 165.2C32 163.3 64 159.7 96.2 145.8C128.3 132 160.7 108 192.8 96.2C225 84.3 257 84.7 289.2 87.7C321.3 90.7 353.7 96.3 385.8 107C418 117.7 450 133.3 482.2 137.7C514.3 142 546.7 135 578.8 129.5C611 124 643 120 659 118L675 116L675 0L659 0C643 0 611 0 578.8 0C546.7 0 514.3 0 482.2 0C450 0 418 0 385.8 0C353.7 0 321.3 0 289.2 0C257 0 225 0 192.8 0C160.7 0 128.3 0 96.2 0C64 0 32 0 16 0L0 0Z"
      fill="#ec4899"
   ></path>
</svg>